<?xml version="1.0" encoding="utf-8"?>
<!-- Generator: Adobe Illustrator 16.0.4, SVG Export Plug-In . SVG Version: 6.00 Build 0)  -->
<!DOCTYPE svg PUBLIC "-//W3C//DTD SVG 1.1//EN" "http://www.w3.org/Graphics/SVG/1.1/DTD/svg11.dtd">
<svg version="1.1" id="Capa_1" xmlns="http://www.w3.org/2000/svg" xmlns:xlink="http://www.w3.org/1999/xlink" x="0px" y="0px"
	 width="612px" height="792px" viewBox="0 0 612 792" enable-background="new 0 0 612 792" xml:space="preserve">
<g>
	<path fill="#2C3E50" d="M475.498,462.637c1.311-4.247,2.211-8.963,2.25-14.442c0.353-23.992,10.783-42.057,31.371-54.307
		c20.588-12.271,25.03-28.846,13.347-49.728c-11.722-20.901-11.722-41.822,0-62.723c11.703-20.901,7.241-37.458-13.347-49.728
		c-20.588-12.231-31.02-30.354-31.371-54.288c-0.332-23.915-12.427-36.087-36.381-36.381c-23.936-0.313-42.019-10.764-54.309-31.352
		c-12.23-20.588-28.786-25.05-49.669-13.308c-20.939,11.664-41.861,11.664-62.723,0c-20.881-11.742-37.477-7.28-49.767,13.308
		c-12.211,20.588-30.333,31.039-54.307,31.352c-23.935,0.293-36.087,12.447-36.401,36.361
		c-0.333,23.954-10.764,42.057-31.352,54.288c-20.548,12.29-25.011,28.847-13.327,49.748c11.742,20.881,11.742,41.802,0,62.723
		c-11.703,20.881-7.221,37.457,13.347,49.728c20.588,12.232,31.019,30.315,31.351,54.307c0.079,4.345,0.939,7.866,1.801,11.469
		L41.567,645.227l78.887-8.825l43.661,65.6c0,0,57.243-119.378,80.786-167.951c8.669,2.915,18.572,1.428,29.747-4.795
		c20.862-11.723,41.782-11.723,62.723,0c11.781,6.595,22.173,7.867,31.195,4.168l96.949,166.699l27.242-70.668l77.674,10.079
		L475.498,462.637z M305.98,455.709c-81.099,0-146.875-65.737-146.875-146.816c0-81.119,65.775-146.894,146.875-146.894
		c81.118,0,146.874,65.775,146.874,146.894C452.854,389.972,387.079,455.709,305.98,455.709z"/>
	<circle fill="#2C3E50" cx="306" cy="310.243" r="115.465"/>
</g>
</svg>
