<?xml version="1.0" encoding="utf-8"?>
<!-- Generator: Adobe Illustrator 16.0.4, SVG Export Plug-In . SVG Version: 6.00 Build 0)  -->
<!DOCTYPE svg PUBLIC "-//W3C//DTD SVG 1.1//EN" "http://www.w3.org/Graphics/SVG/1.1/DTD/svg11.dtd">
<svg version="1.1" id="Capa_1" xmlns="http://www.w3.org/2000/svg" xmlns:xlink="http://www.w3.org/1999/xlink" x="0px" y="0px"
	 width="550.795px" height="550.795px" viewBox="0 0 550.795 550.795" enable-background="new 0 0 550.795 550.795"
	 xml:space="preserve">
<g>
	<g>
		<path fill="#2C3E50" d="M501.613,491.782c12.381,0,23.107-4.088,32.229-12.16L377.793,323.567
			c-3.744,2.681-7.373,5.287-10.801,7.767c-11.678,8.604-21.156,15.317-28.436,20.129c-7.275,4.822-16.959,9.737-29.045,14.755
			c-12.094,5.024-23.36,7.528-33.812,7.528h-0.306h-0.306c-10.453,0-21.72-2.503-33.813-7.528
			c-12.093-5.018-21.775-9.933-29.045-14.755c-7.277-4.812-16.75-11.524-28.434-20.129c-3.256-2.388-6.867-5.006-10.771-7.81
			L16.946,479.622c9.119,8.072,19.854,12.16,32.234,12.16H501.613z"/>
		<path fill="#2C3E50" d="M31.047,225.299C19.37,217.514,9.015,208.598,0,198.555V435.98l137.541-137.542
			C110.025,279.229,74.572,254.877,31.047,225.299z"/>
		<path fill="#2C3E50" d="M520.059,225.299c-41.863,28.336-77.445,52.729-106.75,73.195l137.486,137.492V198.555
			C541.98,208.396,531.736,217.306,520.059,225.299z"/>
		<path fill="#2C3E50" d="M501.613,59.013H49.181c-15.784,0-27.919,5.33-36.42,15.979C4.253,85.646,0.006,98.97,0.006,114.949
			c0,12.907,5.636,26.892,16.903,41.959c11.267,15.061,23.256,26.891,35.961,35.496c6.965,4.921,27.969,19.523,63.012,43.801
			c18.917,13.109,35.368,24.535,49.505,34.395c12.05,8.396,22.442,15.667,31.022,21.701c0.985,0.691,2.534,1.8,4.59,3.269
			c2.215,1.593,5.018,3.611,8.476,6.107c6.659,4.816,12.191,8.709,16.597,11.684c4.4,2.976,9.731,6.299,15.985,9.988
			c6.249,3.686,12.143,6.455,17.675,8.299c5.533,1.843,10.655,2.767,15.367,2.767h0.306h0.306c4.711,0,9.834-0.925,15.368-2.767
			c5.531-1.844,11.42-4.607,17.674-8.299c6.248-3.689,11.572-7.021,15.986-9.988c4.404-2.975,9.938-6.865,16.598-11.684
			c3.451-2.496,6.254-4.517,8.469-6.102c2.059-1.477,3.605-2.577,4.598-3.274c6.684-4.651,17.1-11.892,31.104-21.616
			c25.482-17.705,63.01-43.764,112.742-78.281c14.957-10.447,27.453-23.054,37.496-37.803c10.024-14.749,15.051-30.22,15.051-46.408
			c0-13.525-4.873-25.098-14.598-34.737C526.461,63.829,514.932,59.013,501.613,59.013z"/>
	</g>
</g>
</svg>
