<?xml version="1.0" encoding="utf-8"?>
<!-- Generator: Adobe Illustrator 16.0.4, SVG Export Plug-In . SVG Version: 6.00 Build 0)  -->
<!DOCTYPE svg PUBLIC "-//W3C//DTD SVG 1.1//EN" "http://www.w3.org/Graphics/SVG/1.1/DTD/svg11.dtd">
<svg version="1.1" id="Capa_1" xmlns="http://www.w3.org/2000/svg" xmlns:xlink="http://www.w3.org/1999/xlink" x="0px" y="0px"
	 width="30.125px" height="30.125px" viewBox="0 0 30.125 30.125" enable-background="new 0 0 30.125 30.125" xml:space="preserve">
<g>
	<g>
		<path fill="#2C3E50" d="M21.174,19.085c1.432,0,2.594-1.162,2.594-2.596c0-0.895,0.312-1.715-0.377-2.181
			c-0.414-0.28-2.231-0.414-2.771-0.414c-0.64,0-1.47,0.522-1.922,0.905c-0.562,0.476-0.119,0.895-0.119,1.688
			C18.578,17.923,19.738,19.085,21.174,19.085z M19.363,16.234c0.479-0.086,0.803,0.07,0.803,0.07l0.797-0.388
			c0,0-0.406,0.586-0.041,0.388c0.809-0.271,1.717-0.158,2.18-0.068c0.018,0.104,0.03,0.205,0.03,0.312
			c0,1.07-0.849,1.935-1.899,1.935c-1.049,0-1.896-0.861-1.896-1.935C19.333,16.441,19.35,16.337,19.363,16.234z"/>
		<path fill="#2C3E50" d="M26.014,23.218L23,19.511h-3.357l-1.74-1.516c0.006-0.009,0.01-0.017,0.012-0.024l-0.989-0.853
			c-0.004,0.004-0.011,0.008-0.013,0.012l-1.2-1.043l0.336-0.133l-2.966-8.532h1.052h0.71L14.51,6.796
			c-0.009-0.016-0.756-1.444-1.047-2.798c0-0.02,0.006-0.036,0.006-0.055c0-0.264-0.04-0.518-0.101-0.765
			c-0.004-0.077-0.007-0.153-0.01-0.233C13.314,1.702,13.255,0,10.291,0c-1.154,0-2.03,0.299-2.603,0.891
			C6.876,1.724,6.806,2.966,6.834,3.955C6.88,5.548,5.912,6.707,5.903,6.72L5.306,7.423h1.731l-2.946,8.542l1.638,0.652l1.837-5.04
			l0.184,2.335l-2.97,8.22h3.428v7.156h-0.45v0.836h2.049v-0.836v-7.156h0.768v7.156v0.836h2.047v-0.836h-0.45v-7.156h2.656
			l-2.618-8.22l0.142-2.876l2.035,5.581l0.279-0.111l0.162-0.062l4.347,4.92l0.126,4.931h0.518v3.233H19.49v0.38h1.492v-0.38v-3.233
			h0.561v3.233v0.38h1.488v-0.38h-0.326v-3.233h0.625v-4.176l2.057,2.112l0.646-0.16v-0.868L26.014,23.218z M10.937,6.212
			L10.93,7.103v0.152l-0.867,1.316L9.192,7.336V7.002V6.556V6.085C8.395,5.699,7.837,4.888,7.837,3.942
			c0-0.398,0.108-0.768,0.28-1.099l1.261-0.121l3.045,0.281c0.122,0.288,0.191,0.605,0.191,0.938
			C12.614,5.011,11.904,5.909,10.937,6.212z"/>
	</g>
</g>
</svg>
